Coordinates
version=1
nRows=16
nColumns=36
inDegrees=yes

Units are S.I. units (second, meters, Newtons, ...)
If the header above contains a line with 'inDegrees', this indicates whether rotational values are in degrees (yes) or radians (no).

endheader
time	pelvis_tilt	pelvis_list	pelvis_rotation	pelvis_tx	pelvis_ty	pelvis_tz	hip_flexion_r	hip_adduction_r	hip_rotation_r	knee_angle_r	knee_angle_r_beta	ankle_angle_r	subtalar_angle_r	mtp_angle_r	hip_flexion_l	hip_adduction_l	hip_rotation_l	knee_angle_l	knee_angle_l_beta	ankle_angle_l	subtalar_angle_l	mtp_angle_l	lumbar_extension	lumbar_bending	lumbar_rotation	arm_flex_r	arm_add_r	arm_rot_r	elbow_flex_r	pro_sup_r	arm_flex_l	arm_add_l	arm_rot_l	elbow_flex_l	pro_sup_l
      1.07000000	     -2.83970472	     -0.56779787	      2.61968570	      1.16193581	      0.95229971	     -0.22303503	     26.49216333	      1.32898529	     -0.30651637	      7.92064385	      0.13824131	     -1.19491801	     -2.28157026	     -7.32547741	     -7.63020527	      2.38778195	     -5.71426723	      5.38270266	      0.09394588	     16.23954590	      6.78491412	     -7.32547741	     -3.65927522	     -3.66884482	     -7.25223421	     -0.49149677	     -3.27696378	     -7.76144669	     27.71835946	    102.86742415	     18.87944831	    -10.60265536	     -4.05649907	     40.51206918	    104.80349284
      1.08000000	     -3.12341560	     -0.30084766	      2.48870432	      1.17251697	      0.94982050	     -0.22210759	     26.39362017	      1.12468515	      0.04894807	      4.68087891	      0.08169675	     -0.92832161	     -1.02382917	     -7.32826122	     -8.08430229	      2.59938658	     -5.94527358	      5.38204932	      0.09393448	     16.60705325	      7.03803381	     -7.32826122	     -3.33385227	     -4.00277649	     -7.20750405	     -0.66336038	     -3.27890473	     -7.98039432	     27.33035354	    102.88467069	     19.41895585	    -10.68558624	     -3.80495367	     41.26957878	    104.89708803
      1.09000000	     -3.50375374	      0.00918592	      2.42247324	      1.18314985	      0.94716254	     -0.22127339	     26.62186206	      0.83570640	     -0.06944207	      2.27606235	      0.03972478	     -0.47666002	     -0.32816690	     -7.32928180	     -8.39593333	      2.85954159	     -6.04229192	      5.43698398	      0.09489327	     16.79393947	      7.14856116	     -7.32928180	     -2.88527407	     -4.38678832	     -7.11723329	     -0.92294531	     -3.31883948	     -8.12253355	     26.99243116	    102.88017222	     19.95723081	    -10.61345824	     -3.64237521	     41.92278532	    104.97154752
      1.10000000	     -3.64763943	      0.19659894	      2.33162171	      1.19384879	      0.94486199	     -0.22042832	     26.88754241	      0.62926671	     -1.28412737	      0.95874027	      0.01673317	      1.16525324	      3.30390617	     -7.33948584	     -8.84744223	      2.91654963	     -6.76488463	      5.73975987	      0.10017771	     17.44214724	      8.25903050	     -7.33948584	     -2.78996085	     -4.53339658	     -7.16857375	     -0.92180533	     -3.28177316	     -8.79879073	     26.61653898	    103.11161171	     20.33011168	    -10.70805765	     -3.28257574	     42.76507306	    105.06229478
      1.11000000	     -3.96174491	      0.40800900	      2.29409121	      1.20459644	      0.94236563	     -0.21956206	     27.53972806	      0.41088981	     -2.54879260	      0.55488654	      0.00968460	      2.63285449	      5.43409389	     -7.34806077	     -9.06338820	      3.01296186	     -7.09605567	      6.13329313	      0.10704616	     17.81255193	      8.71302473	     -7.34806077	     -2.46024119	     -4.73086941	     -7.19827846	     -0.99407079	     -3.30371622	     -9.12895101	     26.14350837	    103.31775578	     20.63740658	    -10.70107058	     -3.05089350	     43.49467551	    105.12432658
      1.12000000	     -4.19818317	      0.58061187	      2.22973733	      1.21553430	      0.94006475	     -0.21847906	     27.98281561	      0.31355166	     -2.97002297	      0.41068280	      0.00716777	      3.14987878	      5.37732254	     -7.34875677	     -9.40770261	      3.08200599	     -7.07868527	      6.45587523	      0.11267628	     17.88576508	      8.67709482	     -7.34875677	     -2.20867997	     -4.91757975	     -7.07045094	     -1.15302828	     -3.33315943	     -9.20526946	     25.82083570	    103.31249730	     21.04742876	    -10.52124607	     -2.95670216	     43.99900017	    105.17555705
      1.13000000	     -4.41423877	      0.59534653	      2.33375798	      1.22677316	      0.93798616	     -0.21757314	     28.20596197	      0.30276282	     -3.38909265	      0.40628880	      0.00709108	      3.80780800	      5.44719544	     -7.35023619	     -9.63103773	      2.92194087	     -6.98556241	      7.07446079	      0.12347263	     18.04851101	      8.55073282	     -7.35023619	     -1.96033252	     -4.86912834	     -7.22064874	     -1.18938496	     -3.37264948	     -9.40931946	     25.30863822	    103.28933478	     21.18206801	    -10.43730518	     -2.77302665	     44.59173364	    105.22935188
      1.14000000	     -4.51831725	      0.61847107	      2.38052065	      1.23859734	      0.93624116	     -0.21660629	     28.11125069	      0.31632285	     -3.48212285	      0.45612130	      0.00796082	      3.83761592	      5.35906852	     -7.35054627	    -10.12003850	      2.80037155	     -6.91006130	      7.42417039	      0.12957622	     18.00840729	      8.52515808	     -7.35054627	     -1.69363675	     -4.83192219	     -7.32747484	     -1.40433763	     -3.46246903	     -9.47206445	     25.11212840	    103.26385514	     21.25012775	    -10.30476831	     -2.72133620	     44.80492223	    105.23636490
      1.15000000	     -4.51484314	      0.32028360	      2.67728326	      1.25033769	      0.93486297	     -0.21576890	     27.74635565	      0.60359090	     -3.32605779	      0.52714259	      0.00920037	      2.58211715	      2.97359949	     -7.35641442	    -10.38003259	      2.21145105	     -6.73508607	      8.43943788	      0.14729598	     18.18814405	      8.35454746	     -7.35641442	     -1.73642988	     -4.41137535	     -7.85065810	     -1.10322974	     -3.43132188	     -9.81981178	     24.21402972	    103.27151023	     20.90872586	    -10.15646848	     -3.05811883	     46.03752558	    105.26616489
      1.16000000	     -4.47007596	      0.05772305	      2.85002768	      1.26243734	      0.93370138	     -0.21468223	     27.25981029	      0.92874191	     -2.66360383	      0.67310788	      0.01174795	      0.80946518	      0.19456663	     -7.36299282	    -10.76343332	      1.69408243	     -6.60517202	      9.29101032	      0.16215872	     17.99762890	      8.05706401	     -7.36299282	     -1.71541743	     -4.04170678	     -8.09065561	     -1.12107228	     -3.49091918	     -9.84089646	     23.77859414	    103.30721206	     20.73647635	     -9.86423805	     -3.36237843	     46.57562328	    105.25307630
      1.17000000	     -4.41854968	     -0.25773579	      3.02376363	      1.27467068	      0.93277619	     -0.21361112	     26.76359171	      1.29868575	     -2.06140856	      0.92334786	      0.01611546	     -1.38113705	     -2.51601120	     -7.36917655	    -11.09875210	      1.12990765	     -6.28820295	     10.21954382	      0.17836469	     17.66908649	      7.57077540	     -7.36917655	     -1.69895884	     -3.58410242	     -8.31904642	     -1.09850281	     -3.57389185	     -9.94999275	     23.32985904	    103.30041288	     20.44691641	     -9.52548324	     -3.63494598	     47.10668635	    105.27554988
      1.18000000	     -4.27280186	     -0.68692907	      3.24549290	      1.28714946	      0.93223109	     -0.21251150	     26.21161248	      1.74346247	     -2.22997331	      1.33826833	      0.02335719	     -2.99356086	     -3.65278489	     -7.37131166	    -11.42854541	      0.39930761	     -6.08847600	     11.32885454	      0.19772581	     17.20712410	      7.01367993	     -7.37131166	     -1.76388033	     -2.98424282	     -8.52324008	     -1.11644779	     -3.66472283	    -10.07698775	     22.99755893	    103.26138352	     20.19598021	     -9.17523259	     -3.68826750	     47.35921513	    105.29164687
      1.19000000	     -4.25192518	     -1.06730060	      3.36558788	      1.29961709	      0.93170767	     -0.21116636	     25.74179116	      2.24071990	     -1.20049894	      1.64919541	      0.02878389	     -5.96726599	     -7.18714506	     -7.37869253	    -11.61717575	     -0.17951215	     -5.29966204	     12.43827597	      0.21708887	     16.39721424	      5.75716557	     -7.37869253	     -1.68127570	     -2.47174019	     -8.75175034	     -1.07605249	     -3.70391720	    -10.23485489	     22.59381094	    103.16156238	     19.66107660	     -8.75598274	     -4.24121109	     47.91371684	    105.28522618
      1.20000000	     -4.06725184	     -1.52776525	      3.47394755	      1.31233937	      0.93164430	     -0.20978532	     25.25051485	      2.77607698	     -1.26732163	      2.35685320	      0.04113485	     -6.76274344	     -7.38409509	     -7.37935970	    -11.89032615	     -0.90897649	     -4.87282328	     13.70685610	      0.23922977	     15.73530205	      5.47360908	     -7.37935970	     -1.78581429	     -1.84462935	     -8.71749785	     -1.15807097	     -3.80591746	    -10.30727677	     22.36044795	    103.12946760	     19.34734651	     -8.32250463	     -4.16135640	     48.00353523	    105.29990659
      1.21000000	     -4.00319704	     -2.01148713	      3.72333076	      1.32512843	      0.93173445	     -0.20845405	     24.76609341	      3.33756724	     -1.19631661	      2.73455752	      0.04772703	     -9.52371627	    -10.14032114	     -7.38678974	    -11.81150469	     -1.61294715	     -3.91047054	     15.29924203	      0.26702215	     14.28893579	      3.14153437	     -7.38678974	     -1.68500806	     -1.22696479	     -9.07218536	     -1.10037433	     -3.79719350	    -10.53504428	     21.95015965	    102.93936054	     18.65020447	     -7.90038339	     -4.67147386	     48.35778063	    105.28046434
      1.22000000	     -3.74118311	     -2.54147226	      3.92072321	      1.33806335	      0.93227372	     -0.20692769	     24.19839815	      3.96518422	     -1.64863622	      3.49148013	      0.06093782	    -10.10770188	    -10.51769365	     -7.38796418	    -11.78081885	     -2.48402885	     -3.61198396	     17.18531100	      0.29994026	     13.22177537	      2.46858591	     -7.38796418	     -1.84537466	     -0.55053219	     -9.08889079	     -1.18034885	     -3.84754915	    -10.60488576	     21.69510933	    102.89263941	     18.21545559	     -7.46187313	     -4.57786945	     48.33004286	    105.28756207
